<?xml version="1.0" encoding="UTF-8" standalone="no"?>
<!-- Created with Inkscape (http://www.inkscape.org/) -->

<svg
   xmlns:dc="http://purl.org/dc/elements/1.1/"
   xmlns:cc="http://creativecommons.org/ns#"
   xmlns:rdf="http://www.w3.org/1999/02/22-rdf-syntax-ns#"
   xmlns:svg="http://www.w3.org/2000/svg"
   xmlns="http://www.w3.org/2000/svg"
   xmlns:sodipodi="http://sodipodi.sourceforge.net/DTD/sodipodi-0.dtd"
   xmlns:inkscape="http://www.inkscape.org/namespaces/inkscape"
   id="svg2"
   version="1.1"
   inkscape:version="0.47 r22583"
   width="383"
   height="399"
   sodipodi:docname="Aire.svg">
  <metadata
     id="metadata8">
    <rdf:RDF>
      <cc:Work
         rdf:about="">
        <dc:format>image/svg+xml</dc:format>
        <dc:type
           rdf:resource="http://purl.org/dc/dcmitype/StillImage" />
        <dc:title />
      </cc:Work>
    </rdf:RDF>
  </metadata>
  <defs
     id="defs6">
    <inkscape:perspective
       sodipodi:type="inkscape:persp3d"
       inkscape:vp_x="0 : 0.5 : 1"
       inkscape:vp_y="0 : 1000 : 0"
       inkscape:vp_z="1 : 0.5 : 1"
       inkscape:persp3d-origin="0.5 : 0.33333333 : 1"
       id="perspective10" />
  </defs>
  <sodipodi:namedview
     pagecolor="#ffffff"
     bordercolor="#666666"
     borderopacity="1"
     objecttolerance="10"
     gridtolerance="10"
     guidetolerance="10"
     inkscape:pageopacity="0"
     inkscape:pageshadow="2"
     inkscape:window-width="1024"
     inkscape:window-height="712"
     id="namedview4"
     showgrid="false"
     inkscape:zoom="1.3283208"
     inkscape:cx="149.21736"
     inkscape:cy="238.22136"
     inkscape:window-x="-4"
     inkscape:window-y="-4"
     inkscape:window-maximized="1"
     inkscape:current-layer="svg2" />
  <path
     style="fill:#000000"
     d="m 318.24862,167.61589 c -1.47765,-36.17614 -5.68776,-36.29107 -31.92151,-55.59028 -13.70636,-6.03154 -22.35915,-3.81276 -35.85332,-3.13026 -12.86272,7.09172 -19.35251,16.29554 -31.10612,25.99653 -8.175,14.26347 -7.26163,34.01164 6.08614,42.03419 5.79896,9.87082 16.52467,11.80012 27.79119,15.12234 7.73978,4.2664 27.73801,-6.68558 34.61918,-16.49497 7.10363,-20.19051 -5.81206,-25.65296 -15.57235,-35.61336 -41.9426,-21.72158 -31.24519,28.32232 -20.42669,32.03856 -25.33756,-1.89191 -23.16076,-23.89074 -9.68597,-41.59089 5.89061,-10.94053 32.12618,-2.57947 42.59336,3.07229 25.59389,18.49286 18.75171,46.21175 -1.42307,60.51021 -7.77872,6.59597 -20.29687,8.90825 -40.74281,5.41457 -18.60245,-7.9651 -26.78371,-14.11422 -36.03739,-28.14684 -5.41095,-7.23384 -0.67533,-34.03785 2.21148,-40.61491 7.5343,-14.87346 16.41103,-22.02329 46.09542,-32.370841 9.29939,-3.241626 24.35768,0.904871 38.87552,4.620741 12.08583,3.22406 27.03041,25.09624 32.28904,34.30907 7.45215,42.95706 -11.36997,49.25051 -24.34964,69.21128 10.03446,-25.78818 8.61328,-18.75593 16.55754,-38.77743 z M 130.25585,268.89532 c 14.488,20.17506 34.18557,31.75216 56.22993,42.43597 8.63919,3.18557 47.63427,2.40957 55.87413,-6.71256 23.63653,-17.93742 32.83908,-63.90809 0.82845,-77.58503 -11.73159,-5.86789 -23.77296,-6.17455 -43.34232,-0.37312 -15.82736,14.30769 -19.34595,37.30429 -17.00493,39.03721 1.74683,25.56453 40.17583,24.31724 40.11642,18.42998 19.7254,-14.45873 21.7555,-34.25111 -9.18078,-42.42013 -1.80144,1.09707 5.46626,-1.90276 9.2588,-1.35779 30.53671,8.78796 16.54783,39.48103 10.78866,46.68273 -14.7931,7.92898 -22.90915,11.80858 -34.27669,7.39181 -38.29714,-20.9291 -33.72458,-49.29132 -7.80484,-75.52119 13.46927,-12.36978 36.01968,-15.44077 54.2533,-7.1788 24.68705,7.28696 31.35501,47.64922 29.5656,53.2752 2.64025,16.14879 -10.68201,39.84736 -27.22172,51.70104 -19.60072,13.89558 -46.05277,9.01771 -64.19488,3.76335 -29.31718,-8.20376 -44.72483,-26.5723 -53.88913,-51.56867 z M 81.587513,168.66739 c -1.732651,-1.28829 15.609728,-43.27906 18.380678,-42.97617 14.996949,-16.809 11.423259,-14.40067 38.239949,-30.583394 18.26286,-8.317893 45.43089,2.629699 62.41474,10.776004 -32.13703,-10.703569 -47.04555,-5.987305 -60.66807,-0.48101 -27.01871,9.88035 -32.44697,24.81003 -37.12779,32.22498 -3.72352,8.15263 -11.076236,20.20783 -13.103667,32.10218 7.684256,20.76128 17.979727,36.41785 39.372427,45.45183 35.78683,-5.35382 39.75491,-2.75105 51.04758,-29.77109 6.37599,-24.47692 1.31277,-28.33466 -21.23901,-36.2151 -27.08238,-4.9729 -35.86814,4.46243 -41.02197,9.62385 -5.75666,9.79361 -9.66997,21.65268 8.1654,30.35333 17.70493,9.80071 20.91941,5.14246 24.25864,0.33925 4.42704,-8.58016 7.21057,-7.21853 -0.19024,-15.16606 -5.09341,-4.18915 -9.32961,-6.49914 -12.11534,-8.99196 -2.13371,-1.90937 8.2364,0.6594 14.47491,4.51266 12.41558,3.30084 13.52372,13.11603 5.20289,24.82996 -4.80006,3.36848 -9.32598,18.59264 -36.33666,-2.02288 -14.78194,-7.14649 -15.26732,-19.12301 -9.99819,-36.84965 2.09175,-12.16821 32.71569,-21.61869 54.00334,-17.47659 23.49912,7.73667 28.07615,20.60953 22.34433,49.14504 -13.26035,31.18681 -27.88952,38.57564 -57.80704,39.28897 -24.4775,-0.29356 -40.434323,-37.48337 -48.296907,-58.11415 z"
     id="path2818"
     sodipodi:nodetypes="cccccccccccccccscccccccccccccccccccccccccccccccccccscccccccc" />
</svg>
